<svg xmlns="http://www.w3.org/2000/svg" viewBox="0 0 1440 900" width="1440" height="900">
  <defs>
    <filter id="dg-xl" x="-130%" y="-130%" width="360%" height="360%">
      <feGaussianBlur in="SourceGraphic" stdDeviation="18" result="blur"/>
      <feMerge><feMergeNode in="blur"/><feMergeNode in="SourceGraphic"/></feMerge>
    </filter>
    <filter id="dg-l" x="-90%" y="-90%" width="280%" height="280%">
      <feGaussianBlur in="SourceGraphic" stdDeviation="11" result="blur"/>
      <feMerge><feMergeNode in="blur"/><feMergeNode in="SourceGraphic"/></feMerge>
    </filter>
    <filter id="dg-m" x="-65%" y="-65%" width="230%" height="230%">
      <feGaussianBlur in="SourceGraphic" stdDeviation="7" result="blur"/>
      <feMerge><feMergeNode in="blur"/><feMergeNode in="SourceGraphic"/></feMerge>
    </filter>
    <filter id="dg-s" x="-45%" y="-45%" width="190%" height="190%">
      <feGaussianBlur in="SourceGraphic" stdDeviation="4" result="blur"/>
      <feMerge><feMergeNode in="blur"/><feMergeNode in="SourceGraphic"/></feMerge>
    </filter>
    <filter id="trail-glow" x="-60%" y="-300%" width="220%" height="700%">
      <feGaussianBlur in="SourceGraphic" stdDeviation="5" result="blur"/>
      <feMerge><feMergeNode in="blur"/><feMergeNode in="SourceGraphic"/></feMerge>
    </filter>
    <symbol id="ds" viewBox="0 0 100 100">
      <line x1="50" y1="50" x2="17" y2="17" stroke="rgba(255,255,255,0.92)" stroke-width="3.2" stroke-linecap="round"/>
      <line x1="50" y1="50" x2="83" y2="17" stroke="rgba(255,255,255,0.92)" stroke-width="3.2" stroke-linecap="round"/>
      <line x1="50" y1="50" x2="17" y2="83" stroke="rgba(255,255,255,0.92)" stroke-width="3.2" stroke-linecap="round"/>
      <line x1="50" y1="50" x2="83" y2="83" stroke="rgba(255,255,255,0.92)" stroke-width="3.2" stroke-linecap="round"/>
      <rect x="42" y="42" width="16" height="16" rx="3.5" fill="white" opacity="0.82"/>
      <rect x="46" y="38" width="8" height="6" rx="2" fill="rgba(190,210,255,0.75)"/>
      <circle cx="17" cy="17" r="10" fill="rgba(255,255,255,0.16)" stroke="rgba(255,255,255,0.78)" stroke-width="2.2"/>
      <circle cx="83" cy="17" r="10" fill="rgba(255,255,255,0.16)" stroke="rgba(255,255,255,0.78)" stroke-width="2.2"/>
      <circle cx="17" cy="83" r="10" fill="rgba(255,255,255,0.16)" stroke="rgba(255,255,255,0.78)" stroke-width="2.2"/>
      <circle cx="83" cy="83" r="10" fill="rgba(255,255,255,0.16)" stroke="rgba(255,255,255,0.78)" stroke-width="2.2"/>
      <ellipse cx="17" cy="17" rx="13" ry="3.8" fill="rgba(255,255,255,0.42)" transform="rotate(-22,17,17)"/>
      <ellipse cx="83" cy="17" rx="13" ry="3.8" fill="rgba(255,255,255,0.42)" transform="rotate(22,83,17)"/>
      <ellipse cx="17" cy="83" rx="13" ry="3.8" fill="rgba(255,255,255,0.42)" transform="rotate(22,17,83)"/>
      <ellipse cx="83" cy="83" rx="13" ry="3.8" fill="rgba(255,255,255,0.42)" transform="rotate(-22,83,83)"/>
      <circle cx="17" cy="17" r="5" fill="#20e8ff"/>
      <circle cx="83" cy="17" r="5" fill="#20e8ff"/>
      <circle cx="17" cy="83" r="5" fill="#ffcc20"/>
      <circle cx="83" cy="83" r="5" fill="#ffcc20"/>
      <circle cx="50" cy="60" r="4.5" fill="rgba(160,185,255,0.88)"/>
      <circle cx="50" cy="60" r="2"   fill="rgba(80,100,200,0.9)"/>
    </symbol>
  </defs>
  <g filter="url(#dg-xl)" opacity="0.93">
    <use href="#ds" x="262" y="106" width="92" height="92"/>
  </g>
  <path d="M286,148 C265,141 244,145 224,141" stroke="#20e8ff" stroke-width="2.4" fill="none" stroke-linecap="round" filter="url(#trail-glow)" opacity="0.58"/>
  <g filter="url(#dg-xl)" opacity="0.90">
    <use href="#ds" x="832" y="72" width="84" height="84"/>
  </g>
  <path d="M874,109 C893,102 913,106 932,102" stroke="#20e8ff" stroke-width="2.1" fill="none" stroke-linecap="round" filter="url(#trail-glow)" opacity="0.52"/>
  <g filter="url(#dg-xl)" opacity="0.90">
    <use href="#ds" x="1142" y="112" width="88" height="88"/>
  </g>
  <path d="M1186,148 C1205,141 1225,145 1242,141" stroke="#ffcc20" stroke-width="2.1" fill="none" stroke-linecap="round" filter="url(#trail-glow)" opacity="0.52"/>
  <g filter="url(#dg-l)" opacity="0.80">
    <use href="#ds" x="85" y="300" width="72" height="72"/>
  </g>
  <g filter="url(#dg-l)" opacity="0.78">
    <use href="#ds" x="1334" y="261" width="74" height="74"/>
  </g>
  <path d="M1368,295 C1386,289 1404,293 1420,289" stroke="#20e8ff" stroke-width="1.9" fill="none" stroke-linecap="round" filter="url(#trail-glow)" opacity="0.44"/>
  <g filter="url(#dg-l)" opacity="0.66">
    <use href="#ds" x="665" y="199" width="60" height="60"/>
  </g>
  <g filter="url(#dg-m)" opacity="0.56">
    <use href="#ds" x="1245" y="46" width="46" height="46"/>
  </g>
  <g filter="url(#dg-m)" opacity="0.53">
    <use href="#ds" x="994" y="168" width="48" height="48"/>
  </g>
  <g filter="url(#dg-m)" opacity="0.45">
    <use href="#ds" x="358" y="398" width="44" height="44"/>
  </g>
  <g filter="url(#dg-s)" opacity="0.74">
    <circle cx="488"  cy="174" r="3.8" fill="#20e8ff"/>
    <circle cx="515"  cy="191" r="2.4" fill="#20e8ff"/>
    <circle cx="398"  cy="248" r="2.6" fill="#20e8ff"/>
    <circle cx="700"  cy="154" r="2.2" fill="#20e8ff"/>
    <circle cx="1356" cy="184" r="2.6" fill="#20e8ff"/>
    <circle cx="1068" cy="80"  r="2"   fill="#20e8ff"/>
    <circle cx="560"  cy="130" r="1.8" fill="#20e8ff"/>
    <circle cx="1150" cy="220" r="2"   fill="#20e8ff"/>
    <circle cx="1018" cy="210" r="3.5" fill="#ffcc20"/>
    <circle cx="872"  cy="145" r="2.2" fill="#ffcc20"/>
    <circle cx="146"  cy="217" r="2.1" fill="#ffcc20"/>
    <circle cx="338"  cy="195" r="1.9" fill="#ffcc20"/>
    <circle cx="760"  cy="270" r="1.8" fill="#ffcc20"/>
    <circle cx="1280" cy="130" r="2"   fill="#ffcc20"/>
  </g>
  <g filter="url(#dg-s)" opacity="0.45">
    <circle cx="580"  cy="92"  r="3"   fill="#20e8ff"/>
    <circle cx="640"  cy="74"  r="3"   fill="#20e8ff"/>
    <circle cx="720"  cy="66"  r="3.5" fill="#20e8ff"/>
    <circle cx="800"  cy="74"  r="3"   fill="#20e8ff"/>
    <circle cx="860"  cy="92"  r="3"   fill="#20e8ff"/>
  </g>
</svg>
